<?xml version="1.0" encoding="UTF-8" standalone="no"?>
<!-- Generator: Adobe Illustrator 19.0.0, SVG Export Plug-In . SVG Version: 6.00 Build 0)  -->

<svg
   xmlns:dc="http://purl.org/dc/elements/1.1/"
   xmlns:cc="http://creativecommons.org/ns#"
   xmlns:rdf="http://www.w3.org/1999/02/22-rdf-syntax-ns#"
   xmlns:svg="http://www.w3.org/2000/svg"
   xmlns="http://www.w3.org/2000/svg"
   xmlns:sodipodi="http://sodipodi.sourceforge.net/DTD/sodipodi-0.dtd"
   xmlns:inkscape="http://www.inkscape.org/namespaces/inkscape"
   version="1.1"
   id="Layer_1"
   x="0px"
   y="0px"
   viewBox="0 0 512 512"
   style="enable-background:new 0 0 512 512;"
   xml:space="preserve"
   sodipodi:docname="is-not-equal-to(1).svg"
   inkscape:version="0.92.4 (unknown)"><metadata
   id="metadata5084"><rdf:RDF><cc:Work
       rdf:about=""><dc:format>image/svg+xml</dc:format><dc:type
         rdf:resource="http://purl.org/dc/dcmitype/StillImage" /></cc:Work></rdf:RDF></metadata><defs
   id="defs5082" /><sodipodi:namedview
   pagecolor="#eea236"
   bordercolor="#666666"
   borderopacity="1"
   objecttolerance="10"
   gridtolerance="10"
   guidetolerance="10"
   inkscape:pageopacity="0"
   inkscape:pageshadow="2"
   inkscape:window-width="3840"
   inkscape:window-height="2032"
   id="namedview5080"
   showgrid="false"
   inkscape:zoom="0.4609375"
   inkscape:cx="256"
   inkscape:cy="256"
   inkscape:window-x="0"
   inkscape:window-y="54"
   inkscape:window-maximized="1"
   inkscape:current-layer="Layer_1" />
<g
   id="g5047">
	<g
   id="g5045">
		<path
   style="fill:#eea236;"
   d="M256,0C114.844,0,0,114.839,0,256s114.844,256,256,256s256-114.839,256-256S397.156,0,256,0z M389.594,317.231H244.592    l-40.125,90.281c-2.772,6.219-8.872,9.92-15.275,9.92c-2.261,0-4.567-0.468-6.773-1.446c-8.425-3.745-12.221-13.612-8.48-22.043    l34.094-76.712h-85.627c-9.219,0-16.699-7.475-16.699-16.699c0-9.225,7.48-16.699,16.699-16.699h100.471l29.688-66.797H122.406v0    c-9.219,0-16.699-7.475-16.699-16.699c0-9.225,7.48-16.699,16.699-16.699h145.002l40.125-90.281    c3.751-8.42,13.579-12.236,22.049-8.474c8.425,3.745,12.221,13.612,8.48,22.043l-34.094,76.712h85.627    c9.219,0,16.699,7.475,16.699,16.699s-7.48,16.699-16.699,16.699H289.124l-29.688,66.797h130.159    c9.219,0,16.699,7.475,16.699,16.699C406.294,309.756,398.813,317.231,389.594,317.231z"
   id="path5043" />
	</g>
</g>
<g
   id="g5049">
</g>
<g
   id="g5051">
</g>
<g
   id="g5053">
</g>
<g
   id="g5055">
</g>
<g
   id="g5057">
</g>
<g
   id="g5059">
</g>
<g
   id="g5061">
</g>
<g
   id="g5063">
</g>
<g
   id="g5065">
</g>
<g
   id="g5067">
</g>
<g
   id="g5069">
</g>
<g
   id="g5071">
</g>
<g
   id="g5073">
</g>
<g
   id="g5075">
</g>
<g
   id="g5077">
</g>
<path
   style="fill:#ffffff;stroke-width:2.16949153"
   d="m 185.40213,415.73133 c -5.78772,-0.93731 -11.40891,-8.2645 -11.40891,-14.87147 0,-2.60558 7.30134,-21.07959 16.22519,-41.05331 8.92385,-19.97375 16.79981,-38.12639 17.50212,-40.33918 1.21639,-3.8325 -0.92426,-4.0233 -45.13514,-4.0233 -45.70893,0 -46.48356,-0.0761 -51.12925,-5.02118 -5.91792,-6.29934 -5.98545,-12.30672 -0.22071,-19.6354 l 4.49644,-5.7163 h 53.81535 53.81534 l 15.20789,-34.1695 15.20789,-34.16949 -68.53156,-0.57344 c -66.84228,-0.5593 -68.65453,-0.68895 -73.51968,-5.25953 -6.39226,-6.0052 -6.39114,-14.87227 0.003,-20.87889 4.89226,-4.59603 6.48514,-4.69982 80.72522,-5.25953 l 75.73449,-0.57098 20.27771,-45.52283 c 11.15274,-25.03755 21.83871,-47.247721 23.74661,-49.355929 5.3731,-5.937205 16.77488,-4.968452 22.16439,1.883199 2.47305,3.143967 4.49645,6.926326 4.49645,8.405243 0,1.478917 -7.81017,20.267757 -17.35594,41.752967 -9.54576,21.48522 -17.35593,40.1571 -17.35593,41.49306 0,1.71652 13.58362,2.42904 46.30782,2.42904 43.65156,0 46.53453,0.25049 50.25989,4.36698 4.96925,5.49095 5.10421,16.38104 0.2631,21.22785 -3.21629,3.22007 -10.68778,3.83229 -58.31047,4.77805 l -54.6215,1.08474 -14.61958,32.54238 c -8.04078,17.8983 -14.66887,33.27457 -14.72909,34.16949 -0.0602,0.89491 30.5349,1.62712 67.98916,1.62712 62.94805,0 68.47234,0.3026 73.03953,4.0009 6.09809,4.93793 6.58705,15.81905 0.98885,22.00499 -3.81785,4.21868 -6.54418,4.36699 -80.27897,4.36699 h -76.32691 l -21.18227,47.64435 c -11.65024,26.20438 -22.30437,48.50708 -23.67583,49.56152 -3.78426,2.90952 -8.4805,3.95329 -13.86431,3.08139 z"
   id="path5086"
   inkscape:connector-curvature="0" /></svg>