<?xml version="1.0" encoding="UTF-8" standalone="no"?>
<!-- Generator: Adobe Illustrator 19.0.0, SVG Export Plug-In . SVG Version: 6.00 Build 0)  -->

<svg
   xmlns:dc="http://purl.org/dc/elements/1.1/"
   xmlns:cc="http://creativecommons.org/ns#"
   xmlns:rdf="http://www.w3.org/1999/02/22-rdf-syntax-ns#"
   xmlns:svg="http://www.w3.org/2000/svg"
   xmlns="http://www.w3.org/2000/svg"
   xmlns:sodipodi="http://sodipodi.sourceforge.net/DTD/sodipodi-0.dtd"
   xmlns:inkscape="http://www.inkscape.org/namespaces/inkscape"
   version="1.1"
   id="Layer_1"
   x="0px"
   y="0px"
   viewBox="0 0 512 512"
   style="enable-background:new 0 0 512 512;"
   xml:space="preserve"
   sodipodi:docname="minus(1).svg"
   inkscape:version="0.92.4 (unknown)"><metadata
   id="metadata3835"><rdf:RDF><cc:Work
       rdf:about=""><dc:format>image/svg+xml</dc:format><dc:type
         rdf:resource="http://purl.org/dc/dcmitype/StillImage" /></cc:Work></rdf:RDF></metadata><defs
   id="defs3833" /><sodipodi:namedview
   pagecolor="#d43f3a"
   bordercolor="#666666"
   borderopacity="1"
   objecttolerance="10"
   gridtolerance="10"
   guidetolerance="10"
   inkscape:pageopacity="0"
   inkscape:pageshadow="2"
   inkscape:window-width="3840"
   inkscape:window-height="2032"
   id="namedview3831"
   showgrid="false"
   inkscape:zoom="3.4609375"
   inkscape:cx="256"
   inkscape:cy="256"
   inkscape:window-x="0"
   inkscape:window-y="54"
   inkscape:window-maximized="1"
   inkscape:current-layer="Layer_1" />
<g
   id="g3798">
	<g
   id="g3796">
		<path
   style="fill:#d43f3a;"
   d="M256,0C114.844,0,0,114.839,0,256s114.844,256,256,256s256-114.839,256-256S397.156,0,256,0z M389.594,272.699H122.406    c-9.219,0-16.699-7.475-16.699-16.699s7.48-16.699,16.699-16.699h267.189c9.219,0,16.699,7.475,16.699,16.699    S398.813,272.699,389.594,272.699z"
   id="path3794" />
	</g>
</g>
<g
   id="g3800">
</g>
<g
   id="g3802">
</g>
<g
   id="g3804">
</g>
<g
   id="g3806">
</g>
<g
   id="g3808">
</g>
<g
   id="g3810">
</g>
<g
   id="g3812">
</g>
<g
   id="g3814">
</g>
<g
   id="g3816">
</g>
<g
   id="g3818">
</g>
<g
   id="g3820">
</g>
<g
   id="g3822">
</g>
<g
   id="g3824">
</g>
<g
   id="g3826">
</g>
<g
   id="g3828">
</g>
<path
   style="fill:#ffffff;stroke-width:0.28893906"
   d="m 118.87202,272.14443 c -8.78384,-1.90736 -14.50929,-10.74555 -12.64832,-19.52479 1.24676,-5.8817 5.80718,-10.71347 11.8808,-12.58774 1.65685,-0.51129 6.60753,-0.53032 137.95329,-0.53032 131.42997,0 136.2959,0.0187 137.9684,0.53127 5.6244,1.72361 10.10541,6.27787 11.5618,11.75082 0.54119,2.03374 0.54266,6.33559 0.003,8.36395 -1.57289,5.91042 -6.64513,10.77221 -12.54267,12.02229 -2.8245,0.5987 -271.41664,0.57374 -274.17619,-0.0255 z"
   id="path3837"
   inkscape:connector-curvature="0" /></svg>