<?xml version="1.0" encoding="UTF-8" standalone="no"?>
<!-- Generator: Adobe Illustrator 19.0.0, SVG Export Plug-In . SVG Version: 6.00 Build 0)  -->

<svg
   xmlns:dc="http://purl.org/dc/elements/1.1/"
   xmlns:cc="http://creativecommons.org/ns#"
   xmlns:rdf="http://www.w3.org/1999/02/22-rdf-syntax-ns#"
   xmlns:svg="http://www.w3.org/2000/svg"
   xmlns="http://www.w3.org/2000/svg"
   xmlns:sodipodi="http://sodipodi.sourceforge.net/DTD/sodipodi-0.dtd"
   xmlns:inkscape="http://www.inkscape.org/namespaces/inkscape"
   version="1.1"
   id="Layer_1"
   x="0px"
   y="0px"
   viewBox="0 0 512 512"
   style="enable-background:new 0 0 512 512;"
   xml:space="preserve"
   sodipodi:docname="plus(1).svg"
   inkscape:version="0.92.4 (unknown)"><metadata
   id="metadata4910"><rdf:RDF><cc:Work
       rdf:about=""><dc:format>image/svg+xml</dc:format><dc:type
         rdf:resource="http://purl.org/dc/dcmitype/StillImage" /></cc:Work></rdf:RDF></metadata><defs
   id="defs4908" /><sodipodi:namedview
   pagecolor="#4cae4c"
   bordercolor="#666666"
   borderopacity="1"
   objecttolerance="10"
   gridtolerance="10"
   guidetolerance="10"
   inkscape:pageopacity="0"
   inkscape:pageshadow="2"
   inkscape:window-width="3840"
   inkscape:window-height="2032"
   id="namedview4906"
   showgrid="false"
   inkscape:zoom="0.4609375"
   inkscape:cx="256"
   inkscape:cy="256"
   inkscape:window-x="0"
   inkscape:window-y="54"
   inkscape:window-maximized="1"
   inkscape:current-layer="Layer_1" />
<g
   id="g4873">
	<g
   id="g4871">
		<path
   style="fill:#4cae4c;"
   d="M256,0C114.844,0,0,114.839,0,256s114.844,256,256,256s256-114.839,256-256S397.156,0,256,0z M389.594,272.699H272.699    v116.895c0,9.225-7.48,16.699-16.699,16.699c-9.219,0-16.699-7.475-16.699-16.699V272.699H122.406    c-9.219,0-16.699-7.475-16.699-16.699c0-9.225,7.48-16.699,16.699-16.699h116.895V122.406c0-9.225,7.48-16.699,16.699-16.699    c9.219,0,16.699,7.475,16.699,16.699v116.895h116.895c9.219,0,16.699,7.475,16.699,16.699    C406.294,265.225,398.813,272.699,389.594,272.699z"
   id="path4869" />
	</g>
</g>
<g
   id="g4875">
</g>
<g
   id="g4877">
</g>
<g
   id="g4879">
</g>
<g
   id="g4881">
</g>
<g
   id="g4883">
</g>
<g
   id="g4885">
</g>
<g
   id="g4887">
</g>
<g
   id="g4889">
</g>
<g
   id="g4891">
</g>
<g
   id="g4893">
</g>
<g
   id="g4895">
</g>
<g
   id="g4897">
</g>
<g
   id="g4899">
</g>
<g
   id="g4901">
</g>
<g
   id="g4903">
</g>
<path
   style="fill:#ffffff;stroke-width:2.16949153"
   d="m 244.83794,400.42578 c -3.16524,-3.49754 -3.59048,-11.33433 -3.59048,-66.16949 v -62.20205 h -61.92913 -61.92912 l -5.32511,-5.32512 c -6.38682,-6.38681 -6.8171,-14.04542 -1.18045,-21.01081 l 4.14466,-5.1217 63.10957,-0.63626 63.10958,-0.63627 v -61.73662 c 0,-58.84396 0.2033,-61.93991 4.33898,-66.0756 5.85258,-5.85257 15.46669,-5.54489 21.31674,0.6822 4.61288,4.91018 4.71716,6.37298 4.71716,66.16949 v 61.14831 h 60.26303 c 51.74419,0 60.96401,0.49098 65.22168,3.47317 10.63283,7.44752 10.06,21.58464 -1.08025,26.66048 -3.46429,1.57843 -25.81665,2.40873 -64.84552,2.40873 h -59.55894 v 61.42143 c 0,58.81381 -0.18779,61.62299 -4.4235,66.16949 -5.54078,5.94733 -17.3112,6.35828 -22.3589,0.78062 z"
   id="path4912"
   inkscape:connector-curvature="0" /></svg>